# xmcd
#
# Track frame offsets:
#	150
#	19117
#	35307
#	50907
#	67575
#	85965
#	99767
#	114625
#	129770
#	145775
#	161687
#
# Disc length: 2336 seconds
# Revision: 0
# Processed by: cddbd v1.5.2PL0 Copyright (c) Steve Scherf et al.
# Submitted via: dBpowerAMP V12.0
#
DISCID=83091e0b
DTITLE=Keith Whitley - Greatest Hits
DYEAR=1990
DGENRE=Country
TTITLE0=Don't Close Your Eyes
TTITLE1=I'm No Stranger To The Rain
TTITLE2=Miami, My Amy
TTITLE3=When You Say Nothing At All
TTITLE4=It Ain't Nothin'
TTITLE5=I'm Over You
TTITLE6=I Wonder Do You Think Of Me
TTITLE7=Ten Feet Away
TTITLE8=Talk To Me Texas
TTITLE9='Til A Tear Becomes A Rose
TTITLE10=Tell Lorrie I Love Her
EXTD=
EXTT0=
EXTT1=
EXTT2=
EXTT3=
EXTT4=
EXTT5=
EXTT6=
EXTT7=
EXTT8=
EXTT9=
EXTT10=
PLAYORDER=
